<svg xmlns="http://www.w3.org/2000/svg" xmlns:xlink="http://www.w3.org/1999/xlink" version="1.1" x="0px" y="0px" viewBox="0 0 100 125" style="enable-background:new 0 0 100 100;" xml:space="preserve"><g><path d="M32.1,26c-2.7-0.2-4.6,2.1-5.2,4.5c-0.5,2,2.6,2.8,3.1,0.8c0.2-0.9,0.8-2.1,1.9-2.2c0.7,0,1.6,0.6,1.7,1.3   c0.2,2,3.4,2,3.2,0C36.4,28.1,34.6,26.1,32.1,26z"/><path d="M67.9,26c-2.5,0.1-4.3,2.1-4.6,4.5c-0.2,2,2.9,2,3.2,0c0.1-0.7,1-1.4,1.7-1.3c1.1,0,1.6,1.3,1.9,2.2c0.5,2,3.6,1.1,3.1-0.8   C72.5,28,70.6,25.8,67.9,26z"/><path d="M56.2,44.9c0.1,3.4-2.5,6.9-6.1,7c-3.6,0.1-6.3-3.4-6.3-6.8c0-2.1-3.2-2.1-3.2,0c0,5.2,4.1,10,9.5,10c5.4,0,9.5-5,9.3-10.2   C59.4,42.8,56.2,42.8,56.2,44.9z"/><path d="M81.9,12.3L81.9,12.3c-7.3-8.7-18.7-5.9-26.2-4c-2.4,0.6-4.4,1.1-5.7,1.1s-3.3-0.5-5.7-1.1c-7.5-1.9-18.9-4.7-26.2,4   c-8.9,10.6-9.2,28.4-3.9,38.4c4.6,8.7,4.9,21.9,5.1,26.9c0.2,6.6,4.1,16.1,10.8,16.1c3.6,0,6.5-5.4,10.1-12.2   c2.9-5.5,7-13.1,9.8-13.1s6.9,7.5,9.8,13.1c3.6,6.8,6.5,12.2,10.1,12.2c6.7,0,10.6-9.5,10.8-16.1c0.1-5,0.5-18.2,5.1-26.9   C91.1,40.7,90.8,22.9,81.9,12.3z M82.8,49.1c-4.9,9.4-5.3,23.2-5.5,28.4C77.2,82.6,74,90.2,70,90.2c-1.5,0-5-6.5-7.1-10.4   c-4.1-7.7-7.9-14.9-12.9-14.9s-8.8,7.2-12.9,14.9c-2.1,3.9-5.6,10.4-7.1,10.4c-4.1,0-7.2-7.6-7.4-12.8c-0.1-5.2-0.5-19-5.5-28.4   c-4.1-7.8-5.2-24.2,3.5-34.6c5.9-7.1,15.7-4.7,22.8-2.9c2.6,0.6,4.8,1.2,6.5,1.2s3.9-0.6,6.5-1.2c7.1-1.8,16.8-4.2,22.8,2.9v0   C88,24.9,86.9,41.3,82.8,49.1z"/></g><text x="0" y="115" fill="#000000" font-size="5px" font-weight="bold" font-family="'Helvetica Neue', Helvetica, Arial-Unicode, Arial, Sans-serif">Created by Akshar Pathak</text><text x="0" y="120" fill="#000000" font-size="5px" font-weight="bold" font-family="'Helvetica Neue', Helvetica, Arial-Unicode, Arial, Sans-serif">from the Noun Project</text></svg>